<svg width="27" height="26" viewBox="0 0 27 26" fill="none" xmlns="http://www.w3.org/2000/svg">
<path d="M2.64528 13.02C2.68215 12.5606 2.89072 12.1319 3.22945 11.8194C3.56818 11.5068 4.01221 11.3333 4.47311 11.3334H15.5263C15.9872 11.3333 16.4312 11.5068 16.7699 11.8194C17.1087 12.1319 17.3172 12.5606 17.3541 13.02L18.0902 22.1867C18.1104 22.439 18.0782 22.6927 17.9956 22.9319C17.913 23.1711 17.7818 23.3906 17.6101 23.5766C17.4385 23.7626 17.2303 23.911 16.9985 24.0126C16.7667 24.1142 16.5164 24.1666 16.2633 24.1667H3.73611C3.48304 24.1666 3.23273 24.1142 3.00093 24.0126C2.76913 23.911 2.56087 23.7626 2.38925 23.5766C2.21764 23.3906 2.08639 23.1711 2.00377 22.9319C1.92115 22.6927 1.88895 22.439 1.9092 22.1867L2.64528 13.02V13.02Z" stroke="black" stroke-width="2" stroke-linecap="round" stroke-linejoin="round"/>
<path d="M13.6663 14.0834V9.50004C13.6663 8.52758 13.28 7.59495 12.5924 6.90732C11.9048 6.21968 10.9721 5.83337 9.99967 5.83337C9.02721 5.83337 8.09458 6.21968 7.40695 6.90732C6.71932 7.59495 6.33301 8.52758 6.33301 9.50004V14.0834" stroke="black" stroke-width="2" stroke-linecap="round" stroke-linejoin="round"/>
<path d="M18 1.6875C16.5537 1.6875 15.1399 2.11637 13.9374 2.91988C12.7349 3.72339 11.7976 4.86544 11.2441 6.20163C10.6907 7.53781 10.5459 9.00811 10.828 10.4266C11.1102 11.8451 11.8066 13.148 12.8293 14.1707C13.852 15.1934 15.1549 15.8898 16.5734 16.172C17.9919 16.4541 19.4622 16.3093 20.7984 15.7559C22.1346 15.2024 23.2766 14.2651 24.0801 13.0626C24.8836 11.8601 25.3125 10.4463 25.3125 9C25.3103 7.06128 24.5392 5.20259 23.1683 3.83171C21.7974 2.46082 19.9387 1.6897 18 1.6875ZM19.9688 12.375C19.9688 12.5242 19.9095 12.6673 19.804 12.7727C19.6985 12.8782 19.5554 12.9375 19.4063 12.9375C19.2571 12.9375 19.114 12.8782 19.0085 12.7727C18.903 12.6673 18.8438 12.5242 18.8438 12.375V10.6875H16.0313C15.9413 10.6875 15.8526 10.6659 15.7728 10.6246C15.6929 10.5832 15.624 10.5233 15.5721 10.4499C15.5201 10.3765 15.4865 10.2916 15.4741 10.2025C15.4617 10.1134 15.4709 10.0227 15.5008 9.93783L17.1882 5.15658C17.2125 5.08655 17.2504 5.02201 17.2997 4.96668C17.349 4.91134 17.4087 4.8663 17.4755 4.83414C17.5423 4.80197 17.6148 4.78333 17.6888 4.77927C17.7628 4.77521 17.8369 4.78581 17.9068 4.81048C17.9767 4.83514 18.041 4.87338 18.0961 4.92298C18.1512 4.97259 18.1959 5.0326 18.2277 5.09955C18.2595 5.1665 18.2778 5.23907 18.2814 5.3131C18.2851 5.38713 18.2741 5.46116 18.249 5.53092L16.8263 9.5625H18.8438V7.875C18.8438 7.72582 18.903 7.58274 19.0085 7.47725C19.114 7.37176 19.2571 7.3125 19.4063 7.3125C19.5554 7.3125 19.6985 7.37176 19.804 7.47725C19.9095 7.58274 19.9688 7.72582 19.9688 7.875V12.375Z" fill="#EB0029"/>
</svg>
